%TF.GenerationSoftware,KiCad,Pcbnew,10.0.5*%
%TF.CreationDate,2026-08-17T19:11:11+02:00*%
%TF.ProjectId,trx4m_light_xiao_breakout,74727834-6d5f-46c6-9967-68745f786961,rev?*%
%TF.SameCoordinates,Original*%
%TF.FileFunction,Copper,L2,Bot*%
%TF.FilePolarity,Positive*%
%FSLAX46Y46*%
G04 Gerber Fmt 4.6, Leading zero omitted, Abs format (unit mm)*
G04 Created by KiCad (PCBNEW 10.0.5) date 2026-08-17 19:11:11*
%MOMM*%
%LPD*%
G01*
G04 APERTURE LIST*
G04 Aperture macros list*
%AMFreePoly0*
4,1,23,0.813000,-0.662500,0.809085,-0.662500,0.809085,-0.742688,0.777992,-0.899001,0.717002,-1.046246,0.628457,-1.178762,0.515762,-1.291457,0.383246,-1.380002,0.236001,-1.440992,0.079688,-1.472085,-0.079688,-1.472085,-0.236001,-1.440992,-0.383246,-1.380002,-0.515762,-1.291457,-0.628457,-1.178762,-0.717002,-1.046246,-0.777992,-0.899001,-0.809085,-0.742688,-0.809085,-0.662500,-0.813000,-0.662500,
-0.813000,0.662500,0.813000,0.662500,0.813000,-0.662500,0.813000,-0.662500,$1*%
%AMFreePoly1*
4,1,23,0.813000,-0.604000,0.809085,-0.604000,0.809085,-0.684188,0.777992,-0.840501,0.717002,-0.987746,0.628457,-1.120262,0.515762,-1.232957,0.383246,-1.321502,0.236001,-1.382492,0.079688,-1.413585,-0.079688,-1.413585,-0.236001,-1.382492,-0.383246,-1.321502,-0.515762,-1.232957,-0.628457,-1.120262,-0.717002,-0.987746,-0.777992,-0.840501,-0.809085,-0.684188,-0.809085,-0.604000,-0.813000,-0.604000,
-0.813000,0.604000,0.813000,0.604000,0.813000,-0.604000,0.813000,-0.604000,$1*%
G04 Aperture macros list end*
%TA.AperFunction,ComponentPad*%
%ADD10R,1.700000X1.700000*%
%TD*%
%TA.AperFunction,ComponentPad*%
%ADD11C,1.700000*%
%TD*%
%TA.AperFunction,ComponentPad*%
%ADD12C,1.270000*%
%TD*%
%TA.AperFunction,SMDPad,CuDef*%
%ADD13FreePoly0,90.000000*%
%TD*%
%TA.AperFunction,ComponentPad*%
%ADD14C,1.400000*%
%TD*%
%TA.AperFunction,SMDPad,CuDef*%
%ADD15FreePoly1,90.000000*%
%TD*%
%TA.AperFunction,SMDPad,CuDef*%
%ADD16FreePoly0,270.000000*%
%TD*%
%TA.AperFunction,SMDPad,CuDef*%
%ADD17FreePoly1,270.000000*%
%TD*%
%TA.AperFunction,ViaPad*%
%ADD18C,0.600000*%
%TD*%
%TA.AperFunction,Conductor*%
%ADD19C,0.500000*%
%TD*%
G04 APERTURE END LIST*
D10*
%TO.P,J2,1,Pin_1_1*%
%TO.N,Net-(J2-Pin_1)*%
X143002000Y-102362000D03*
D11*
%TO.P,J2,2,Pin_2_2*%
%TO.N,+5V*%
X143002000Y-104902000D03*
%TO.P,J2,3,Pin_3_3*%
%TO.N,GND*%
X143002000Y-107442000D03*
%TD*%
D10*
%TO.P,J3,1,Pin_1_1*%
%TO.N,Net-(J3-Pin_1)*%
X139954000Y-102362000D03*
D11*
%TO.P,J3,2,Pin_2_2*%
%TO.N,+5V*%
X139954000Y-104902000D03*
%TO.P,J3,3,Pin_3_3*%
%TO.N,GND*%
X139954000Y-107442000D03*
%TD*%
D10*
%TO.P,J1,1,Pin_1_1*%
%TO.N,Net-(J1-Pin_1)*%
X146050000Y-102362000D03*
D11*
%TO.P,J1,2,Pin_2_2*%
%TO.N,VCC*%
X146050000Y-104902000D03*
%TO.P,J1,3,Pin_3_3*%
%TO.N,GND*%
X146050000Y-107442000D03*
%TD*%
D12*
%TO.P,U1,1,D0_1*%
%TO.N,Net-(U1-D0)*%
X132842000Y-76454000D03*
D13*
X133454000Y-76454000D03*
D14*
X134012000Y-76454000D03*
D12*
%TO.P,U1,2,D1_2*%
%TO.N,Net-(U1-D1)*%
X132842000Y-78994000D03*
D15*
X133395000Y-78994000D03*
D14*
X134112000Y-78994000D03*
D12*
%TO.P,U1,3,D2_3*%
%TO.N,Net-(U1-D2)*%
X132842000Y-81534000D03*
D13*
X133454000Y-81534000D03*
D14*
X134112000Y-81534000D03*
D12*
%TO.P,U1,4,D3_4*%
%TO.N,unconnected-(U1-D3-Pad4)*%
X132842000Y-84074000D03*
D13*
X133454000Y-84074000D03*
D14*
X134112000Y-84074000D03*
D12*
%TO.P,U1,5,D4_5*%
%TO.N,unconnected-(U1-D4-Pad5)*%
X132842000Y-86614000D03*
D13*
X133454000Y-86614000D03*
D14*
X134112000Y-86614000D03*
D12*
%TO.P,U1,6,D5_6*%
%TO.N,unconnected-(U1-D5-Pad6)*%
X132842000Y-89154000D03*
D15*
X133395000Y-89154000D03*
D14*
X134112000Y-89154000D03*
D12*
%TO.P,U1,7,D6_7*%
%TO.N,unconnected-(U1-D6-Pad7)*%
X132842000Y-91694000D03*
D13*
X133454000Y-91694000D03*
D14*
X134012000Y-91694000D03*
%TO.P,U1,8,D7_8*%
%TO.N,Net-(J1-Pin_1)*%
X149452000Y-91694000D03*
D16*
X150010000Y-91694000D03*
D12*
X150622000Y-91694000D03*
D14*
%TO.P,U1,9,D8_9*%
%TO.N,unconnected-(U1-D8-Pad9)*%
X149352000Y-89154000D03*
D17*
X150069000Y-89154000D03*
D12*
X150622000Y-89154000D03*
D14*
%TO.P,U1,10,D9_10*%
%TO.N,unconnected-(U1-D9-Pad10)*%
X149352000Y-86614000D03*
D16*
X150010000Y-86614000D03*
D12*
X150622000Y-86614000D03*
D14*
%TO.P,U1,11,D10_11*%
%TO.N,unconnected-(U1-D10-Pad11)*%
X149352000Y-84074000D03*
D16*
X150010000Y-84074000D03*
D12*
X150622000Y-84074000D03*
D14*
%TO.P,U1,12,3V3_OUT_12*%
%TO.N,+3.3V*%
X149352000Y-81534000D03*
D16*
X150010000Y-81534000D03*
D12*
X150622000Y-81534000D03*
D14*
%TO.P,U1,13,GND_13*%
%TO.N,GND*%
X149352000Y-78994000D03*
D17*
X150069000Y-78994000D03*
D12*
X150622000Y-78994000D03*
D14*
%TO.P,U1,14,VBUS_14*%
%TO.N,+5V*%
X149452000Y-76454000D03*
D16*
X150010000Y-76454000D03*
D12*
X150622000Y-76454000D03*
%TD*%
D18*
%TO.N,+5V*%
X145034000Y-97536000D03*
X145034000Y-85774040D03*
%TO.N,GND*%
X136144000Y-80518000D03*
X137160000Y-87884000D03*
%TO.N,+3.3V*%
X140716000Y-80518000D03*
%TO.N,VCC*%
X144018000Y-85774040D03*
%TD*%
%TO.N,VCC*%
D19*
X144018000Y-99822000D02*
X144018000Y-85774040D01*
X144526000Y-100330000D02*
X144018000Y-99822000D01*
X144526000Y-104140000D02*
X144526000Y-100330000D01*
X145288000Y-104902000D02*
X144526000Y-104140000D01*
X146050000Y-104902000D02*
X145288000Y-104902000D01*
%TO.N,+5V*%
X145034000Y-85774040D02*
X145034000Y-97536000D01*
%TO.N,GND*%
X138176000Y-100838000D02*
X137160000Y-99822000D01*
X137160000Y-87884000D02*
X137160000Y-80518000D01*
X136144000Y-80518000D02*
X137160000Y-80518000D01*
X139954000Y-107442000D02*
X138176000Y-105664000D01*
X138176000Y-105664000D02*
X138176000Y-100838000D01*
X140970000Y-78994000D02*
X149352000Y-78994000D01*
X137160000Y-99822000D02*
X137160000Y-87884000D01*
X139446000Y-80518000D02*
X140970000Y-78994000D01*
X137160000Y-80518000D02*
X139446000Y-80518000D01*
%TO.N,+3.3V*%
X149352000Y-81534000D02*
X148336000Y-80518000D01*
X148336000Y-80518000D02*
X140716000Y-80518000D01*
%TD*%
M02*
