M48
; DRILL file KiCad 10.0.5 date 2026-08-17T19:11:15
; FORMAT={-:-/ absolute / metric / decimal}
; #@! TF.CreationDate,2026-08-17T19:11:15+02:00
; #@! TF.GenerationSoftware,Kicad,Pcbnew,10.0.5
; #@! TF.FileFunction,Plated,1,2,PTH
FMAT,2
METRIC
; #@! TA.AperFunction,Plated,PTH,ViaDrill
T1C0.300
; #@! TA.AperFunction,Plated,PTH,ComponentDrill
T2C0.700
; #@! TA.AperFunction,Plated,PTH,ComponentDrill
T3C0.950
; #@! TA.AperFunction,Plated,PTH,ComponentDrill
T4C1.000
%
G90
G05
T1
X136.144Y-80.518
X137.16Y-87.884
X140.716Y-80.518
X144.018Y-85.774
X145.034Y-85.774
X145.034Y-97.536
T2
X132.842Y-76.454
X132.842Y-78.994
X132.842Y-81.534
X132.842Y-84.074
X132.842Y-86.614
X132.842Y-89.154
X132.842Y-91.694
X150.622Y-76.454
X150.622Y-78.994
X150.622Y-81.534
X150.622Y-84.074
X150.622Y-86.614
X150.622Y-89.154
X150.622Y-91.694
T3
X134.012Y-76.454
X134.012Y-91.694
X134.112Y-78.994
X134.112Y-81.534
X134.112Y-84.074
X134.112Y-86.614
X134.112Y-89.154
X149.352Y-78.994
X149.352Y-81.534
X149.352Y-84.074
X149.352Y-86.614
X149.352Y-89.154
X149.452Y-76.454
X149.452Y-91.694
T4
X139.954Y-102.362
X139.954Y-104.902
X139.954Y-107.442
X143.002Y-102.362
X143.002Y-104.902
X143.002Y-107.442
X146.05Y-102.362
X146.05Y-104.902
X146.05Y-107.442
M30
