%TF.GenerationSoftware,KiCad,Pcbnew,10.0.5*%
%TF.CreationDate,2026-08-17T19:11:11+02:00*%
%TF.ProjectId,trx4m_light_xiao_breakout,74727834-6d5f-46c6-9967-68745f786961,rev?*%
%TF.SameCoordinates,Original*%
%TF.FileFunction,Soldermask,Bot*%
%TF.FilePolarity,Negative*%
%FSLAX46Y46*%
G04 Gerber Fmt 4.6, Leading zero omitted, Abs format (unit mm)*
G04 Created by KiCad (PCBNEW 10.0.5) date 2026-08-17 19:11:11*
%MOMM*%
%LPD*%
G01*
G04 APERTURE LIST*
G04 Aperture macros list*
%AMFreePoly0*
4,1,43,0.848355,0.697855,0.863000,0.662500,0.863000,-0.662500,0.859085,-0.671951,0.859085,-0.742688,0.858124,-0.752443,0.827031,-0.908756,0.824186,-0.918135,0.763196,-1.065380,0.758575,-1.074025,0.670030,-1.206541,0.663812,-1.214117,0.551117,-1.326812,0.543541,-1.333030,0.411025,-1.421575,0.402380,-1.426196,0.255135,-1.487186,0.245756,-1.490031,0.089443,-1.521124,0.079688,-1.522085,
-0.079688,-1.522085,-0.089443,-1.521124,-0.245756,-1.490031,-0.255135,-1.487186,-0.402380,-1.426196,-0.411025,-1.421575,-0.543541,-1.333030,-0.551117,-1.326812,-0.663812,-1.214117,-0.670030,-1.206541,-0.758575,-1.074025,-0.763196,-1.065380,-0.824186,-0.918135,-0.827031,-0.908756,-0.858124,-0.752443,-0.859085,-0.742688,-0.859085,-0.671951,-0.863000,-0.662500,-0.863000,0.662500,-0.848355,0.697855,
-0.813000,0.712500,0.813000,0.712500,0.848355,0.697855,0.848355,0.697855,$1*%
%AMFreePoly1*
4,1,43,0.848355,0.639355,0.863000,0.604000,0.863000,-0.604000,0.859085,-0.613451,0.859085,-0.684188,0.858124,-0.693943,0.827031,-0.850256,0.824186,-0.859635,0.763196,-1.006880,0.758575,-1.015525,0.670030,-1.148041,0.663812,-1.155617,0.551117,-1.268312,0.543541,-1.274530,0.411025,-1.363075,0.402380,-1.367696,0.255135,-1.428686,0.245756,-1.431531,0.089443,-1.462624,0.079688,-1.463585,
-0.079688,-1.463585,-0.089443,-1.462624,-0.245756,-1.431531,-0.255135,-1.428686,-0.402380,-1.367696,-0.411025,-1.363075,-0.543541,-1.274530,-0.551117,-1.268312,-0.663812,-1.155617,-0.670030,-1.148041,-0.758575,-1.015525,-0.763196,-1.006880,-0.824186,-0.859635,-0.827031,-0.850256,-0.858124,-0.693943,-0.859085,-0.684188,-0.859085,-0.613451,-0.863000,-0.604000,-0.863000,0.604000,-0.848355,0.639355,
-0.813000,0.654000,0.813000,0.654000,0.848355,0.639355,0.848355,0.639355,$1*%
G04 Aperture macros list end*
%ADD10R,1.700000X1.700000*%
%ADD11C,1.700000*%
%ADD12C,1.320800*%
%ADD13FreePoly0,90.000000*%
%ADD14C,1.450800*%
%ADD15FreePoly1,90.000000*%
%ADD16C,1.400000*%
%ADD17FreePoly0,270.000000*%
%ADD18FreePoly1,270.000000*%
G04 APERTURE END LIST*
D10*
%TO.C,J2*%
X143002000Y-102362000D03*
D11*
X143002000Y-104902000D03*
X143002000Y-107442000D03*
%TD*%
D10*
%TO.C,J3*%
X139954000Y-102362000D03*
D11*
X139954000Y-104902000D03*
X139954000Y-107442000D03*
%TD*%
D10*
%TO.C,J1*%
X146050000Y-102362000D03*
D11*
X146050000Y-104902000D03*
X146050000Y-107442000D03*
%TD*%
D12*
%TO.C,U1*%
X132842000Y-76454000D03*
D13*
X133454000Y-76454000D03*
D14*
X134012000Y-76454000D03*
D12*
X132842000Y-78994000D03*
D15*
X133395000Y-78994000D03*
D12*
X132842000Y-81534000D03*
D13*
X133454000Y-81534000D03*
D14*
X134112000Y-81534000D03*
D12*
X132842000Y-84074000D03*
D13*
X133454000Y-84074000D03*
D14*
X134112000Y-84074000D03*
D12*
X132842000Y-86614000D03*
D13*
X133454000Y-86614000D03*
D14*
X134112000Y-86614000D03*
D12*
X132842000Y-89154000D03*
D15*
X133395000Y-89154000D03*
D12*
X132842000Y-91694000D03*
D13*
X133454000Y-91694000D03*
D14*
X134012000Y-91694000D03*
D16*
X149452000Y-91694000D03*
D17*
X150010000Y-91694000D03*
D12*
X150622000Y-91694000D03*
D18*
X150069000Y-89154000D03*
D12*
X150622000Y-89154000D03*
D14*
X149352000Y-86614000D03*
D17*
X150010000Y-86614000D03*
D12*
X150622000Y-86614000D03*
D14*
X149352000Y-84074000D03*
D17*
X150010000Y-84074000D03*
D12*
X150622000Y-84074000D03*
D14*
X149352000Y-81534000D03*
D17*
X150010000Y-81534000D03*
D12*
X150622000Y-81534000D03*
D18*
X150069000Y-78994000D03*
D12*
X150622000Y-78994000D03*
D14*
X149452000Y-76454000D03*
D17*
X150010000Y-76454000D03*
D12*
X150622000Y-76454000D03*
%TD*%
M02*
