%TF.GenerationSoftware,KiCad,Pcbnew,10.0.5*%
%TF.CreationDate,2026-08-17T19:11:11+02:00*%
%TF.ProjectId,trx4m_light_xiao_breakout,74727834-6d5f-46c6-9967-68745f786961,rev?*%
%TF.SameCoordinates,Original*%
%TF.FileFunction,Legend,Bot*%
%TF.FilePolarity,Positive*%
%FSLAX46Y46*%
G04 Gerber Fmt 4.6, Leading zero omitted, Abs format (unit mm)*
G04 Created by KiCad (PCBNEW 10.0.5) date 2026-08-17 19:11:11*
%MOMM*%
%LPD*%
G01*
G04 APERTURE LIST*
%ADD10C,0.100000*%
G04 APERTURE END LIST*
D10*
X139478295Y-100708734D02*
X139478295Y-100232544D01*
X139192580Y-100803972D02*
X140192580Y-100470639D01*
X140192580Y-100470639D02*
X139192580Y-100137306D01*
X139859247Y-99375401D02*
X139192580Y-99375401D01*
X139859247Y-99803972D02*
X139335438Y-99803972D01*
X139335438Y-99803972D02*
X139240200Y-99756353D01*
X139240200Y-99756353D02*
X139192580Y-99661115D01*
X139192580Y-99661115D02*
X139192580Y-99518258D01*
X139192580Y-99518258D02*
X139240200Y-99423020D01*
X139240200Y-99423020D02*
X139287819Y-99375401D01*
X139192580Y-98994448D02*
X139859247Y-98470639D01*
X139859247Y-98994448D02*
X139192580Y-98470639D01*
X140192580Y-97137305D02*
X140192580Y-96946829D01*
X140192580Y-96946829D02*
X140144961Y-96851591D01*
X140144961Y-96851591D02*
X140049723Y-96756353D01*
X140049723Y-96756353D02*
X139859247Y-96708734D01*
X139859247Y-96708734D02*
X139525914Y-96708734D01*
X139525914Y-96708734D02*
X139335438Y-96756353D01*
X139335438Y-96756353D02*
X139240200Y-96851591D01*
X139240200Y-96851591D02*
X139192580Y-96946829D01*
X139192580Y-96946829D02*
X139192580Y-97137305D01*
X139192580Y-97137305D02*
X139240200Y-97232543D01*
X139240200Y-97232543D02*
X139335438Y-97327781D01*
X139335438Y-97327781D02*
X139525914Y-97375400D01*
X139525914Y-97375400D02*
X139859247Y-97375400D01*
X139859247Y-97375400D02*
X140049723Y-97327781D01*
X140049723Y-97327781D02*
X140144961Y-97232543D01*
X140144961Y-97232543D02*
X140192580Y-97137305D01*
X139859247Y-95851591D02*
X139192580Y-95851591D01*
X139859247Y-96280162D02*
X139335438Y-96280162D01*
X139335438Y-96280162D02*
X139240200Y-96232543D01*
X139240200Y-96232543D02*
X139192580Y-96137305D01*
X139192580Y-96137305D02*
X139192580Y-95994448D01*
X139192580Y-95994448D02*
X139240200Y-95899210D01*
X139240200Y-95899210D02*
X139287819Y-95851591D01*
X139859247Y-95518257D02*
X139859247Y-95137305D01*
X140192580Y-95375400D02*
X139335438Y-95375400D01*
X139335438Y-95375400D02*
X139240200Y-95327781D01*
X139240200Y-95327781D02*
X139192580Y-95232543D01*
X139192580Y-95232543D02*
X139192580Y-95137305D01*
X139859247Y-94803971D02*
X138859247Y-94803971D01*
X139811628Y-94803971D02*
X139859247Y-94708733D01*
X139859247Y-94708733D02*
X139859247Y-94518257D01*
X139859247Y-94518257D02*
X139811628Y-94423019D01*
X139811628Y-94423019D02*
X139764009Y-94375400D01*
X139764009Y-94375400D02*
X139668771Y-94327781D01*
X139668771Y-94327781D02*
X139383057Y-94327781D01*
X139383057Y-94327781D02*
X139287819Y-94375400D01*
X139287819Y-94375400D02*
X139240200Y-94423019D01*
X139240200Y-94423019D02*
X139192580Y-94518257D01*
X139192580Y-94518257D02*
X139192580Y-94708733D01*
X139192580Y-94708733D02*
X139240200Y-94803971D01*
X139859247Y-93470638D02*
X139192580Y-93470638D01*
X139859247Y-93899209D02*
X139335438Y-93899209D01*
X139335438Y-93899209D02*
X139240200Y-93851590D01*
X139240200Y-93851590D02*
X139192580Y-93756352D01*
X139192580Y-93756352D02*
X139192580Y-93613495D01*
X139192580Y-93613495D02*
X139240200Y-93518257D01*
X139240200Y-93518257D02*
X139287819Y-93470638D01*
X139859247Y-93137304D02*
X139859247Y-92756352D01*
X140192580Y-92994447D02*
X139335438Y-92994447D01*
X139335438Y-92994447D02*
X139240200Y-92946828D01*
X139240200Y-92946828D02*
X139192580Y-92851590D01*
X139192580Y-92851590D02*
X139192580Y-92756352D01*
X142367580Y-100661115D02*
X143367580Y-100661115D01*
X143367580Y-100661115D02*
X142653295Y-100327782D01*
X142653295Y-100327782D02*
X143367580Y-99994449D01*
X143367580Y-99994449D02*
X142367580Y-99994449D01*
X142367580Y-99089687D02*
X142891390Y-99089687D01*
X142891390Y-99089687D02*
X142986628Y-99137306D01*
X142986628Y-99137306D02*
X143034247Y-99232544D01*
X143034247Y-99232544D02*
X143034247Y-99423020D01*
X143034247Y-99423020D02*
X142986628Y-99518258D01*
X142415200Y-99089687D02*
X142367580Y-99184925D01*
X142367580Y-99184925D02*
X142367580Y-99423020D01*
X142367580Y-99423020D02*
X142415200Y-99518258D01*
X142415200Y-99518258D02*
X142510438Y-99565877D01*
X142510438Y-99565877D02*
X142605676Y-99565877D01*
X142605676Y-99565877D02*
X142700914Y-99518258D01*
X142700914Y-99518258D02*
X142748533Y-99423020D01*
X142748533Y-99423020D02*
X142748533Y-99184925D01*
X142748533Y-99184925D02*
X142796152Y-99089687D01*
X142367580Y-98613496D02*
X143034247Y-98613496D01*
X143367580Y-98613496D02*
X143319961Y-98661115D01*
X143319961Y-98661115D02*
X143272342Y-98613496D01*
X143272342Y-98613496D02*
X143319961Y-98565877D01*
X143319961Y-98565877D02*
X143367580Y-98613496D01*
X143367580Y-98613496D02*
X143272342Y-98613496D01*
X143034247Y-98137306D02*
X142367580Y-98137306D01*
X142939009Y-98137306D02*
X142986628Y-98089687D01*
X142986628Y-98089687D02*
X143034247Y-97994449D01*
X143034247Y-97994449D02*
X143034247Y-97851592D01*
X143034247Y-97851592D02*
X142986628Y-97756354D01*
X142986628Y-97756354D02*
X142891390Y-97708735D01*
X142891390Y-97708735D02*
X142367580Y-97708735D01*
X143367580Y-96280163D02*
X143367580Y-96089687D01*
X143367580Y-96089687D02*
X143319961Y-95994449D01*
X143319961Y-95994449D02*
X143224723Y-95899211D01*
X143224723Y-95899211D02*
X143034247Y-95851592D01*
X143034247Y-95851592D02*
X142700914Y-95851592D01*
X142700914Y-95851592D02*
X142510438Y-95899211D01*
X142510438Y-95899211D02*
X142415200Y-95994449D01*
X142415200Y-95994449D02*
X142367580Y-96089687D01*
X142367580Y-96089687D02*
X142367580Y-96280163D01*
X142367580Y-96280163D02*
X142415200Y-96375401D01*
X142415200Y-96375401D02*
X142510438Y-96470639D01*
X142510438Y-96470639D02*
X142700914Y-96518258D01*
X142700914Y-96518258D02*
X143034247Y-96518258D01*
X143034247Y-96518258D02*
X143224723Y-96470639D01*
X143224723Y-96470639D02*
X143319961Y-96375401D01*
X143319961Y-96375401D02*
X143367580Y-96280163D01*
X143034247Y-94994449D02*
X142367580Y-94994449D01*
X143034247Y-95423020D02*
X142510438Y-95423020D01*
X142510438Y-95423020D02*
X142415200Y-95375401D01*
X142415200Y-95375401D02*
X142367580Y-95280163D01*
X142367580Y-95280163D02*
X142367580Y-95137306D01*
X142367580Y-95137306D02*
X142415200Y-95042068D01*
X142415200Y-95042068D02*
X142462819Y-94994449D01*
X143034247Y-94661115D02*
X143034247Y-94280163D01*
X143367580Y-94518258D02*
X142510438Y-94518258D01*
X142510438Y-94518258D02*
X142415200Y-94470639D01*
X142415200Y-94470639D02*
X142367580Y-94375401D01*
X142367580Y-94375401D02*
X142367580Y-94280163D01*
X143034247Y-93946829D02*
X142034247Y-93946829D01*
X142986628Y-93946829D02*
X143034247Y-93851591D01*
X143034247Y-93851591D02*
X143034247Y-93661115D01*
X143034247Y-93661115D02*
X142986628Y-93565877D01*
X142986628Y-93565877D02*
X142939009Y-93518258D01*
X142939009Y-93518258D02*
X142843771Y-93470639D01*
X142843771Y-93470639D02*
X142558057Y-93470639D01*
X142558057Y-93470639D02*
X142462819Y-93518258D01*
X142462819Y-93518258D02*
X142415200Y-93565877D01*
X142415200Y-93565877D02*
X142367580Y-93661115D01*
X142367580Y-93661115D02*
X142367580Y-93851591D01*
X142367580Y-93851591D02*
X142415200Y-93946829D01*
X143034247Y-92613496D02*
X142367580Y-92613496D01*
X143034247Y-93042067D02*
X142510438Y-93042067D01*
X142510438Y-93042067D02*
X142415200Y-92994448D01*
X142415200Y-92994448D02*
X142367580Y-92899210D01*
X142367580Y-92899210D02*
X142367580Y-92756353D01*
X142367580Y-92756353D02*
X142415200Y-92661115D01*
X142415200Y-92661115D02*
X142462819Y-92613496D01*
X143034247Y-92280162D02*
X143034247Y-91899210D01*
X143367580Y-92137305D02*
X142510438Y-92137305D01*
X142510438Y-92137305D02*
X142415200Y-92089686D01*
X142415200Y-92089686D02*
X142367580Y-91994448D01*
X142367580Y-91994448D02*
X142367580Y-91899210D01*
X145590200Y-100708734D02*
X145542580Y-100565877D01*
X145542580Y-100565877D02*
X145542580Y-100327782D01*
X145542580Y-100327782D02*
X145590200Y-100232544D01*
X145590200Y-100232544D02*
X145637819Y-100184925D01*
X145637819Y-100184925D02*
X145733057Y-100137306D01*
X145733057Y-100137306D02*
X145828295Y-100137306D01*
X145828295Y-100137306D02*
X145923533Y-100184925D01*
X145923533Y-100184925D02*
X145971152Y-100232544D01*
X145971152Y-100232544D02*
X146018771Y-100327782D01*
X146018771Y-100327782D02*
X146066390Y-100518258D01*
X146066390Y-100518258D02*
X146114009Y-100613496D01*
X146114009Y-100613496D02*
X146161628Y-100661115D01*
X146161628Y-100661115D02*
X146256866Y-100708734D01*
X146256866Y-100708734D02*
X146352104Y-100708734D01*
X146352104Y-100708734D02*
X146447342Y-100661115D01*
X146447342Y-100661115D02*
X146494961Y-100613496D01*
X146494961Y-100613496D02*
X146542580Y-100518258D01*
X146542580Y-100518258D02*
X146542580Y-100280163D01*
X146542580Y-100280163D02*
X146494961Y-100137306D01*
X145542580Y-99708734D02*
X146209247Y-99708734D01*
X146542580Y-99708734D02*
X146494961Y-99756353D01*
X146494961Y-99756353D02*
X146447342Y-99708734D01*
X146447342Y-99708734D02*
X146494961Y-99661115D01*
X146494961Y-99661115D02*
X146542580Y-99708734D01*
X146542580Y-99708734D02*
X146447342Y-99708734D01*
X146209247Y-98803973D02*
X145399723Y-98803973D01*
X145399723Y-98803973D02*
X145304485Y-98851592D01*
X145304485Y-98851592D02*
X145256866Y-98899211D01*
X145256866Y-98899211D02*
X145209247Y-98994449D01*
X145209247Y-98994449D02*
X145209247Y-99137306D01*
X145209247Y-99137306D02*
X145256866Y-99232544D01*
X145590200Y-98803973D02*
X145542580Y-98899211D01*
X145542580Y-98899211D02*
X145542580Y-99089687D01*
X145542580Y-99089687D02*
X145590200Y-99184925D01*
X145590200Y-99184925D02*
X145637819Y-99232544D01*
X145637819Y-99232544D02*
X145733057Y-99280163D01*
X145733057Y-99280163D02*
X146018771Y-99280163D01*
X146018771Y-99280163D02*
X146114009Y-99232544D01*
X146114009Y-99232544D02*
X146161628Y-99184925D01*
X146161628Y-99184925D02*
X146209247Y-99089687D01*
X146209247Y-99089687D02*
X146209247Y-98899211D01*
X146209247Y-98899211D02*
X146161628Y-98803973D01*
X146209247Y-98327782D02*
X145542580Y-98327782D01*
X146114009Y-98327782D02*
X146161628Y-98280163D01*
X146161628Y-98280163D02*
X146209247Y-98184925D01*
X146209247Y-98184925D02*
X146209247Y-98042068D01*
X146209247Y-98042068D02*
X146161628Y-97946830D01*
X146161628Y-97946830D02*
X146066390Y-97899211D01*
X146066390Y-97899211D02*
X145542580Y-97899211D01*
X145542580Y-96994449D02*
X146066390Y-96994449D01*
X146066390Y-96994449D02*
X146161628Y-97042068D01*
X146161628Y-97042068D02*
X146209247Y-97137306D01*
X146209247Y-97137306D02*
X146209247Y-97327782D01*
X146209247Y-97327782D02*
X146161628Y-97423020D01*
X145590200Y-96994449D02*
X145542580Y-97089687D01*
X145542580Y-97089687D02*
X145542580Y-97327782D01*
X145542580Y-97327782D02*
X145590200Y-97423020D01*
X145590200Y-97423020D02*
X145685438Y-97470639D01*
X145685438Y-97470639D02*
X145780676Y-97470639D01*
X145780676Y-97470639D02*
X145875914Y-97423020D01*
X145875914Y-97423020D02*
X145923533Y-97327782D01*
X145923533Y-97327782D02*
X145923533Y-97089687D01*
X145923533Y-97089687D02*
X145971152Y-96994449D01*
X145542580Y-96375401D02*
X145590200Y-96470639D01*
X145590200Y-96470639D02*
X145685438Y-96518258D01*
X145685438Y-96518258D02*
X146542580Y-96518258D01*
X145542580Y-95232543D02*
X146542580Y-95232543D01*
X146209247Y-94756353D02*
X145542580Y-94756353D01*
X146114009Y-94756353D02*
X146161628Y-94708734D01*
X146161628Y-94708734D02*
X146209247Y-94613496D01*
X146209247Y-94613496D02*
X146209247Y-94470639D01*
X146209247Y-94470639D02*
X146161628Y-94375401D01*
X146161628Y-94375401D02*
X146066390Y-94327782D01*
X146066390Y-94327782D02*
X145542580Y-94327782D01*
M02*
