%TF.GenerationSoftware,KiCad,Pcbnew,10.0.5*%
%TF.CreationDate,2026-08-17T19:11:11+02:00*%
%TF.ProjectId,trx4m_light_xiao_breakout,74727834-6d5f-46c6-9967-68745f786961,rev?*%
%TF.SameCoordinates,Original*%
%TF.FileFunction,Copper,L1,Top*%
%TF.FilePolarity,Positive*%
%FSLAX46Y46*%
G04 Gerber Fmt 4.6, Leading zero omitted, Abs format (unit mm)*
G04 Created by KiCad (PCBNEW 10.0.5) date 2026-08-17 19:11:11*
%MOMM*%
%LPD*%
G01*
G04 APERTURE LIST*
G04 Aperture macros list*
%AMRoundRect*
0 Rectangle with rounded corners*
0 $1 Rounding radius*
0 $2 $3 $4 $5 $6 $7 $8 $9 X,Y pos of 4 corners*
0 Add a 4 corners polygon primitive as box body*
4,1,4,$2,$3,$4,$5,$6,$7,$8,$9,$2,$3,0*
0 Add four circle primitives for the rounded corners*
1,1,$1+$1,$2,$3*
1,1,$1+$1,$4,$5*
1,1,$1+$1,$6,$7*
1,1,$1+$1,$8,$9*
0 Add four rect primitives between the rounded corners*
20,1,$1+$1,$2,$3,$4,$5,0*
20,1,$1+$1,$4,$5,$6,$7,0*
20,1,$1+$1,$6,$7,$8,$9,0*
20,1,$1+$1,$8,$9,$2,$3,0*%
%AMFreePoly0*
4,1,23,0.813000,-0.662500,0.809085,-0.662500,0.809085,-0.742688,0.777992,-0.899001,0.717002,-1.046246,0.628457,-1.178762,0.515762,-1.291457,0.383246,-1.380002,0.236001,-1.440992,0.079688,-1.472085,-0.079688,-1.472085,-0.236001,-1.440992,-0.383246,-1.380002,-0.515762,-1.291457,-0.628457,-1.178762,-0.717002,-1.046246,-0.777992,-0.899001,-0.809085,-0.742688,-0.809085,-0.662500,-0.813000,-0.662500,
-0.813000,0.662500,0.813000,0.662500,0.813000,-0.662500,0.813000,-0.662500,$1*%
%AMFreePoly1*
4,1,23,0.813000,-0.604000,0.809085,-0.604000,0.809085,-0.684188,0.777992,-0.840501,0.717002,-0.987746,0.628457,-1.120262,0.515762,-1.232957,0.383246,-1.321502,0.236001,-1.382492,0.079688,-1.413585,-0.079688,-1.413585,-0.236001,-1.382492,-0.383246,-1.321502,-0.515762,-1.232957,-0.628457,-1.120262,-0.717002,-0.987746,-0.777992,-0.840501,-0.809085,-0.684188,-0.809085,-0.604000,-0.813000,-0.604000,
-0.813000,0.604000,0.813000,0.604000,0.813000,-0.604000,0.813000,-0.604000,$1*%
G04 Aperture macros list end*
%ADD10C,0.300000*%
%TA.AperFunction,NonConductor*%
%ADD11C,0.300000*%
%TD*%
%TA.AperFunction,ComponentPad*%
%ADD12R,1.700000X1.700000*%
%TD*%
%TA.AperFunction,ComponentPad*%
%ADD13C,1.700000*%
%TD*%
%TA.AperFunction,SMDPad,CuDef*%
%ADD14RoundRect,0.250000X1.045000X-0.785000X1.045000X0.785000X-1.045000X0.785000X-1.045000X-0.785000X0*%
%TD*%
%TA.AperFunction,SMDPad,CuDef*%
%ADD15RoundRect,0.250000X-0.450000X0.262500X-0.450000X-0.262500X0.450000X-0.262500X0.450000X0.262500X0*%
%TD*%
%TA.AperFunction,SMDPad,CuDef*%
%ADD16RoundRect,0.087500X-0.537500X-0.087500X0.537500X-0.087500X0.537500X0.087500X-0.537500X0.087500X0*%
%TD*%
%TA.AperFunction,SMDPad,CuDef*%
%ADD17R,4.500000X1.750000*%
%TD*%
%TA.AperFunction,SMDPad,CuDef*%
%ADD18R,1.000000X1.250000*%
%TD*%
%TA.AperFunction,SMDPad,CuDef*%
%ADD19RoundRect,0.250000X0.250000X0.475000X-0.250000X0.475000X-0.250000X-0.475000X0.250000X-0.475000X0*%
%TD*%
%TA.AperFunction,SMDPad,CuDef*%
%ADD20RoundRect,0.250000X0.475000X-0.250000X0.475000X0.250000X-0.475000X0.250000X-0.475000X-0.250000X0*%
%TD*%
%TA.AperFunction,SMDPad,CuDef*%
%ADD21RoundRect,0.150000X-0.150000X0.512500X-0.150000X-0.512500X0.150000X-0.512500X0.150000X0.512500X0*%
%TD*%
%TA.AperFunction,SMDPad,CuDef*%
%ADD22RoundRect,0.250000X-1.045000X0.785000X-1.045000X-0.785000X1.045000X-0.785000X1.045000X0.785000X0*%
%TD*%
%TA.AperFunction,ComponentPad*%
%ADD23C,1.270000*%
%TD*%
%TA.AperFunction,SMDPad,CuDef*%
%ADD24FreePoly0,90.000000*%
%TD*%
%TA.AperFunction,ComponentPad*%
%ADD25C,1.400000*%
%TD*%
%TA.AperFunction,SMDPad,CuDef*%
%ADD26FreePoly1,90.000000*%
%TD*%
%TA.AperFunction,SMDPad,CuDef*%
%ADD27FreePoly0,270.000000*%
%TD*%
%TA.AperFunction,SMDPad,CuDef*%
%ADD28FreePoly1,270.000000*%
%TD*%
%TA.AperFunction,ViaPad*%
%ADD29C,0.600000*%
%TD*%
%TA.AperFunction,Conductor*%
%ADD30C,0.500000*%
%TD*%
%TA.AperFunction,Conductor*%
%ADD31C,0.200000*%
%TD*%
%TA.AperFunction,Conductor*%
%ADD32C,0.250000*%
%TD*%
%TA.AperFunction,Conductor*%
%ADD33C,1.000000*%
%TD*%
G04 APERTURE END LIST*
D10*
D11*
X149259542Y-108908346D02*
X149259542Y-108222632D01*
X150459542Y-108565489D02*
X149259542Y-108565489D01*
X150459542Y-107136917D02*
X149888114Y-107536917D01*
X150459542Y-107822631D02*
X149259542Y-107822631D01*
X149259542Y-107822631D02*
X149259542Y-107365488D01*
X149259542Y-107365488D02*
X149316685Y-107251203D01*
X149316685Y-107251203D02*
X149373828Y-107194060D01*
X149373828Y-107194060D02*
X149488114Y-107136917D01*
X149488114Y-107136917D02*
X149659542Y-107136917D01*
X149659542Y-107136917D02*
X149773828Y-107194060D01*
X149773828Y-107194060D02*
X149830971Y-107251203D01*
X149830971Y-107251203D02*
X149888114Y-107365488D01*
X149888114Y-107365488D02*
X149888114Y-107822631D01*
X149259542Y-106736917D02*
X150459542Y-105936917D01*
X149259542Y-105936917D02*
X150459542Y-106736917D01*
X149659542Y-104965489D02*
X150459542Y-104965489D01*
X149202400Y-105251203D02*
X150059542Y-105536917D01*
X150059542Y-105536917D02*
X150059542Y-104794060D01*
X150459542Y-104336917D02*
X149259542Y-104336917D01*
X149259542Y-104336917D02*
X150116685Y-103936917D01*
X150116685Y-103936917D02*
X149259542Y-103536917D01*
X149259542Y-103536917D02*
X150459542Y-103536917D01*
X150459542Y-102051202D02*
X149259542Y-102051202D01*
X149259542Y-102051202D02*
X149259542Y-101594059D01*
X149259542Y-101594059D02*
X149316685Y-101479774D01*
X149316685Y-101479774D02*
X149373828Y-101422631D01*
X149373828Y-101422631D02*
X149488114Y-101365488D01*
X149488114Y-101365488D02*
X149659542Y-101365488D01*
X149659542Y-101365488D02*
X149773828Y-101422631D01*
X149773828Y-101422631D02*
X149830971Y-101479774D01*
X149830971Y-101479774D02*
X149888114Y-101594059D01*
X149888114Y-101594059D02*
X149888114Y-102051202D01*
X150459542Y-100851202D02*
X149659542Y-100851202D01*
X149888114Y-100851202D02*
X149773828Y-100794059D01*
X149773828Y-100794059D02*
X149716685Y-100736917D01*
X149716685Y-100736917D02*
X149659542Y-100622631D01*
X149659542Y-100622631D02*
X149659542Y-100508345D01*
X150459542Y-99936917D02*
X150402400Y-100051202D01*
X150402400Y-100051202D02*
X150345257Y-100108345D01*
X150345257Y-100108345D02*
X150230971Y-100165488D01*
X150230971Y-100165488D02*
X149888114Y-100165488D01*
X149888114Y-100165488D02*
X149773828Y-100108345D01*
X149773828Y-100108345D02*
X149716685Y-100051202D01*
X149716685Y-100051202D02*
X149659542Y-99936917D01*
X149659542Y-99936917D02*
X149659542Y-99765488D01*
X149659542Y-99765488D02*
X149716685Y-99651202D01*
X149716685Y-99651202D02*
X149773828Y-99594060D01*
X149773828Y-99594060D02*
X149888114Y-99536917D01*
X149888114Y-99536917D02*
X150230971Y-99536917D01*
X150230971Y-99536917D02*
X150345257Y-99594060D01*
X150345257Y-99594060D02*
X150402400Y-99651202D01*
X150402400Y-99651202D02*
X150459542Y-99765488D01*
X150459542Y-99765488D02*
X150459542Y-99936917D01*
X150402400Y-99079774D02*
X150459542Y-98908346D01*
X150459542Y-98908346D02*
X150459542Y-98622631D01*
X150459542Y-98622631D02*
X150402400Y-98508346D01*
X150402400Y-98508346D02*
X150345257Y-98451203D01*
X150345257Y-98451203D02*
X150230971Y-98394060D01*
X150230971Y-98394060D02*
X150116685Y-98394060D01*
X150116685Y-98394060D02*
X150002400Y-98451203D01*
X150002400Y-98451203D02*
X149945257Y-98508346D01*
X149945257Y-98508346D02*
X149888114Y-98622631D01*
X149888114Y-98622631D02*
X149830971Y-98851203D01*
X149830971Y-98851203D02*
X149773828Y-98965488D01*
X149773828Y-98965488D02*
X149716685Y-99022631D01*
X149716685Y-99022631D02*
X149602400Y-99079774D01*
X149602400Y-99079774D02*
X149488114Y-99079774D01*
X149488114Y-99079774D02*
X149373828Y-99022631D01*
X149373828Y-99022631D02*
X149316685Y-98965488D01*
X149316685Y-98965488D02*
X149259542Y-98851203D01*
X149259542Y-98851203D02*
X149259542Y-98565488D01*
X149259542Y-98565488D02*
X149316685Y-98394060D01*
X150402400Y-97365489D02*
X150459542Y-97479774D01*
X150459542Y-97479774D02*
X150459542Y-97708346D01*
X150459542Y-97708346D02*
X150402400Y-97822631D01*
X150402400Y-97822631D02*
X150345257Y-97879774D01*
X150345257Y-97879774D02*
X150230971Y-97936917D01*
X150230971Y-97936917D02*
X149888114Y-97936917D01*
X149888114Y-97936917D02*
X149773828Y-97879774D01*
X149773828Y-97879774D02*
X149716685Y-97822631D01*
X149716685Y-97822631D02*
X149659542Y-97708346D01*
X149659542Y-97708346D02*
X149659542Y-97479774D01*
X149659542Y-97479774D02*
X149716685Y-97365489D01*
X150459542Y-96336918D02*
X149830971Y-96336918D01*
X149830971Y-96336918D02*
X149716685Y-96394060D01*
X149716685Y-96394060D02*
X149659542Y-96508346D01*
X149659542Y-96508346D02*
X149659542Y-96736918D01*
X149659542Y-96736918D02*
X149716685Y-96851203D01*
X150402400Y-96336918D02*
X150459542Y-96451203D01*
X150459542Y-96451203D02*
X150459542Y-96736918D01*
X150459542Y-96736918D02*
X150402400Y-96851203D01*
X150402400Y-96851203D02*
X150288114Y-96908346D01*
X150288114Y-96908346D02*
X150173828Y-96908346D01*
X150173828Y-96908346D02*
X150059542Y-96851203D01*
X150059542Y-96851203D02*
X150002400Y-96736918D01*
X150002400Y-96736918D02*
X150002400Y-96451203D01*
X150002400Y-96451203D02*
X149945257Y-96336918D01*
X150459542Y-95594061D02*
X150402400Y-95708346D01*
X150402400Y-95708346D02*
X150288114Y-95765489D01*
X150288114Y-95765489D02*
X149259542Y-95765489D01*
X150402400Y-94679775D02*
X150459542Y-94794061D01*
X150459542Y-94794061D02*
X150459542Y-95022633D01*
X150459542Y-95022633D02*
X150402400Y-95136918D01*
X150402400Y-95136918D02*
X150288114Y-95194061D01*
X150288114Y-95194061D02*
X149830971Y-95194061D01*
X149830971Y-95194061D02*
X149716685Y-95136918D01*
X149716685Y-95136918D02*
X149659542Y-95022633D01*
X149659542Y-95022633D02*
X149659542Y-94794061D01*
X149659542Y-94794061D02*
X149716685Y-94679775D01*
X149716685Y-94679775D02*
X149830971Y-94622633D01*
X149830971Y-94622633D02*
X149945257Y-94622633D01*
X149945257Y-94622633D02*
X150059542Y-95194061D01*
D12*
%TO.P,J2,1,Pin_1_1*%
%TO.N,Net-(J2-Pin_1)*%
X143002000Y-102362000D03*
D13*
%TO.P,J2,2,Pin_2_2*%
%TO.N,+5V*%
X143002000Y-104902000D03*
%TO.P,J2,3,Pin_3_3*%
%TO.N,GND*%
X143002000Y-107442000D03*
%TD*%
D14*
%TO.P,C4,1*%
%TO.N,+5V*%
X139446000Y-96846000D03*
%TO.P,C4,2*%
%TO.N,GND*%
X139446000Y-90606000D03*
%TD*%
D15*
%TO.P,R1,1*%
%TO.N,Net-(U2-1B)*%
X138938000Y-83415500D03*
%TO.P,R1,2*%
%TO.N,Net-(J2-Pin_1)*%
X138938000Y-85240500D03*
%TD*%
D16*
%TO.P,U2,1,VCCA_1*%
%TO.N,+3.3V*%
X137030000Y-76974000D03*
%TO.P,U2,2,1A_2*%
%TO.N,Net-(U1-D0)*%
X137030000Y-77474000D03*
%TO.P,U2,3,2A_3*%
%TO.N,Net-(U1-D1)*%
X137030000Y-77974000D03*
%TO.P,U2,4,GND_4*%
%TO.N,GND*%
X137030000Y-78474000D03*
%TO.P,U2,5,DIR_5*%
%TO.N,+3.3V*%
X139830000Y-78474000D03*
%TO.P,U2,6,2B_6*%
%TO.N,Net-(U2-2B)*%
X139830000Y-77974000D03*
%TO.P,U2,7,1B_7*%
%TO.N,Net-(U2-1B)*%
X139830000Y-77474000D03*
%TO.P,U2,8,VCCB_8*%
%TO.N,+5V*%
X139830000Y-76974000D03*
%TD*%
D17*
%TO.P,L1,1,1_1*%
%TO.N,Net-(U3-SW)*%
X145034000Y-92531040D03*
%TO.P,L1,2,2_2*%
%TO.N,+5V*%
X145034000Y-95781040D03*
%TD*%
D18*
%TO.P,SW1,1,1_1*%
%TO.N,Net-(U1-D2)*%
X135636000Y-100200000D03*
%TO.P,SW1,2,2_2*%
%TO.N,GND*%
X135636000Y-107950000D03*
%TD*%
D19*
%TO.P,C2,1*%
%TO.N,+3.3V*%
X139380000Y-80518000D03*
%TO.P,C2,2*%
%TO.N,GND*%
X137480000Y-80518000D03*
%TD*%
D15*
%TO.P,R2,1*%
%TO.N,Net-(U2-2B)*%
X136906000Y-83415500D03*
%TO.P,R2,2*%
%TO.N,Net-(J3-Pin_1)*%
X136906000Y-85240500D03*
%TD*%
D20*
%TO.P,C5,1*%
%TO.N,Net-(U3-SW)*%
X146812000Y-89518040D03*
%TO.P,C5,2*%
%TO.N,Net-(U3-BST)*%
X146812000Y-87618040D03*
%TD*%
D12*
%TO.P,J3,1,Pin_1_1*%
%TO.N,Net-(J3-Pin_1)*%
X139954000Y-102362000D03*
D13*
%TO.P,J3,2,Pin_2_2*%
%TO.N,+5V*%
X139954000Y-104902000D03*
%TO.P,J3,3,Pin_3_3*%
%TO.N,GND*%
X139954000Y-107442000D03*
%TD*%
D19*
%TO.P,C3,1*%
%TO.N,VCC*%
X141092000Y-87884000D03*
%TO.P,C3,2*%
%TO.N,GND*%
X139192000Y-87884000D03*
%TD*%
D21*
%TO.P,U3,1,FB_1*%
%TO.N,+5V*%
X144968000Y-87430540D03*
%TO.P,U3,2,EN_2*%
%TO.N,VCC*%
X144018000Y-87430540D03*
%TO.P,U3,3,IN_3*%
X143068000Y-87430540D03*
%TO.P,U3,4,GND_4*%
%TO.N,GND*%
X143068000Y-89705540D03*
%TO.P,U3,5,SW_5*%
%TO.N,Net-(U3-SW)*%
X144018000Y-89705540D03*
%TO.P,U3,6,BST_6*%
%TO.N,Net-(U3-BST)*%
X144968000Y-89705540D03*
%TD*%
D12*
%TO.P,J1,1,Pin_1_1*%
%TO.N,Net-(J1-Pin_1)*%
X146050000Y-102362000D03*
D13*
%TO.P,J1,2,Pin_2_2*%
%TO.N,VCC*%
X146050000Y-104902000D03*
%TO.P,J1,3,Pin_3_3*%
%TO.N,GND*%
X146050000Y-107442000D03*
%TD*%
D22*
%TO.P,C1,1*%
%TO.N,+5V*%
X145796000Y-76636000D03*
%TO.P,C1,2*%
%TO.N,GND*%
X145796000Y-82876000D03*
%TD*%
D23*
%TO.P,U1,1,D0_1*%
%TO.N,Net-(U1-D0)*%
X132842000Y-76454000D03*
D24*
X133454000Y-76454000D03*
D25*
X134012000Y-76454000D03*
D23*
%TO.P,U1,2,D1_2*%
%TO.N,Net-(U1-D1)*%
X132842000Y-78994000D03*
D26*
X133395000Y-78994000D03*
D25*
X134112000Y-78994000D03*
D23*
%TO.P,U1,3,D2_3*%
%TO.N,Net-(U1-D2)*%
X132842000Y-81534000D03*
D24*
X133454000Y-81534000D03*
D25*
X134112000Y-81534000D03*
D23*
%TO.P,U1,4,D3_4*%
%TO.N,unconnected-(U1-D3-Pad4)*%
X132842000Y-84074000D03*
D24*
X133454000Y-84074000D03*
D25*
X134112000Y-84074000D03*
D23*
%TO.P,U1,5,D4_5*%
%TO.N,unconnected-(U1-D4-Pad5)*%
X132842000Y-86614000D03*
D24*
X133454000Y-86614000D03*
D25*
X134112000Y-86614000D03*
D23*
%TO.P,U1,6,D5_6*%
%TO.N,unconnected-(U1-D5-Pad6)*%
X132842000Y-89154000D03*
D26*
X133395000Y-89154000D03*
D25*
X134112000Y-89154000D03*
D23*
%TO.P,U1,7,D6_7*%
%TO.N,unconnected-(U1-D6-Pad7)*%
X132842000Y-91694000D03*
D24*
X133454000Y-91694000D03*
D25*
X134012000Y-91694000D03*
%TO.P,U1,8,D7_8*%
%TO.N,Net-(J1-Pin_1)*%
X149452000Y-91694000D03*
D27*
X150010000Y-91694000D03*
D23*
X150622000Y-91694000D03*
D25*
%TO.P,U1,9,D8_9*%
%TO.N,unconnected-(U1-D8-Pad9)*%
X149352000Y-89154000D03*
D28*
X150069000Y-89154000D03*
D23*
X150622000Y-89154000D03*
D25*
%TO.P,U1,10,D9_10*%
%TO.N,unconnected-(U1-D9-Pad10)*%
X149352000Y-86614000D03*
D27*
X150010000Y-86614000D03*
D23*
X150622000Y-86614000D03*
D25*
%TO.P,U1,11,D10_11*%
%TO.N,unconnected-(U1-D10-Pad11)*%
X149352000Y-84074000D03*
D27*
X150010000Y-84074000D03*
D23*
X150622000Y-84074000D03*
D25*
%TO.P,U1,12,3V3_OUT_12*%
%TO.N,+3.3V*%
X149352000Y-81534000D03*
D27*
X150010000Y-81534000D03*
D23*
X150622000Y-81534000D03*
D25*
%TO.P,U1,13,GND_13*%
%TO.N,GND*%
X149352000Y-78994000D03*
D28*
X150069000Y-78994000D03*
D23*
X150622000Y-78994000D03*
D25*
%TO.P,U1,14,VBUS_14*%
%TO.N,+5V*%
X149452000Y-76454000D03*
D27*
X150010000Y-76454000D03*
D23*
X150622000Y-76454000D03*
%TD*%
D29*
%TO.N,+5V*%
X145034000Y-97536000D03*
X145034000Y-85774040D03*
%TO.N,GND*%
X136144000Y-80518000D03*
X137160000Y-87884000D03*
%TO.N,+3.3V*%
X140716000Y-80518000D03*
%TO.N,VCC*%
X144018000Y-85774040D03*
%TD*%
%TO.N,+5V*%
D30*
X145614000Y-76454000D02*
X140225000Y-76454000D01*
X145796000Y-76636000D02*
X145614000Y-76454000D01*
X140225000Y-76454000D02*
X139830000Y-76849000D01*
X145034000Y-85774040D02*
X145034000Y-85344000D01*
X145034000Y-85344000D02*
X143764000Y-84074000D01*
X145034000Y-99822000D02*
X145034000Y-97536000D01*
X139628000Y-97028000D02*
X139446000Y-96846000D01*
X142240000Y-97536000D02*
X141732000Y-97028000D01*
X145034000Y-97536000D02*
X142240000Y-97536000D01*
X141732000Y-97028000D02*
X139628000Y-97028000D01*
X145034000Y-97536000D02*
X145034000Y-95781040D01*
%TO.N,GND*%
X139518000Y-90678000D02*
X139446000Y-90606000D01*
X142494000Y-90678000D02*
X139518000Y-90678000D01*
X143068000Y-90104000D02*
X142494000Y-90678000D01*
X143068000Y-89705540D02*
X143068000Y-90104000D01*
%TO.N,VCC*%
X142185460Y-87430540D02*
X143068000Y-87430540D01*
X141732000Y-87884000D02*
X142185460Y-87430540D01*
X141092000Y-87884000D02*
X141732000Y-87884000D01*
%TO.N,GND*%
X145796000Y-81208000D02*
X148010000Y-78994000D01*
X145796000Y-82804000D02*
X145796000Y-81208000D01*
X149352000Y-78994000D02*
X148010000Y-78994000D01*
%TO.N,+5V*%
X145978000Y-76454000D02*
X145796000Y-76636000D01*
X149452000Y-76454000D02*
X145978000Y-76454000D01*
X145034000Y-87122000D02*
X145034000Y-85780000D01*
%TO.N,Net-(U3-BST)*%
D31*
X145796000Y-87806040D02*
X145796000Y-88060040D01*
X145984000Y-87618040D02*
X145796000Y-87806040D01*
X146812000Y-87618040D02*
X145984000Y-87618040D01*
X145796000Y-88060040D02*
X145288000Y-88568040D01*
X144968000Y-88888040D02*
X145288000Y-88568040D01*
X144968000Y-89705540D02*
X144968000Y-88888040D01*
%TO.N,VCC*%
D30*
X143068000Y-87430540D02*
X144018000Y-87430540D01*
%TO.N,Net-(J2-Pin_1)*%
D31*
X142494000Y-100584000D02*
X143002000Y-101092000D01*
X136398000Y-98298000D02*
X137160000Y-99060000D01*
X137160000Y-86360000D02*
X136398000Y-87122000D01*
X138430000Y-86360000D02*
X137160000Y-86360000D01*
X140716000Y-100584000D02*
X142494000Y-100584000D01*
X138938000Y-85852000D02*
X138430000Y-86360000D01*
X136398000Y-87122000D02*
X136398000Y-98298000D01*
X143002000Y-101092000D02*
X143002000Y-102362000D01*
X138938000Y-85240500D02*
X138938000Y-85852000D01*
X139192000Y-99060000D02*
X140716000Y-100584000D01*
X137160000Y-99060000D02*
X139192000Y-99060000D01*
%TO.N,+5V*%
D30*
X139954000Y-104902000D02*
X143510000Y-104902000D01*
X145796000Y-78414000D02*
X145796000Y-76564000D01*
X143764000Y-80446000D02*
X145796000Y-78414000D01*
X144968000Y-87430540D02*
X144968000Y-86602040D01*
X144968000Y-86602040D02*
X145034000Y-86536040D01*
X143764000Y-84074000D02*
X143764000Y-80446000D01*
X143002000Y-104902000D02*
X144018000Y-104902000D01*
X144526000Y-104394000D02*
X144526000Y-100330000D01*
X139729000Y-97129000D02*
X139446000Y-96846000D01*
X145034000Y-86536040D02*
X145034000Y-85774040D01*
X145288000Y-96035040D02*
X145034000Y-95781040D01*
X144018000Y-104902000D02*
X144526000Y-104394000D01*
X144526000Y-100330000D02*
X145034000Y-99822000D01*
%TO.N,GND*%
X139192000Y-87884000D02*
X139192000Y-90352000D01*
X139954000Y-107442000D02*
X143510000Y-107442000D01*
X136144000Y-107442000D02*
X139954000Y-107442000D01*
X137480000Y-80518000D02*
X137480000Y-79049000D01*
X139192000Y-90352000D02*
X139446000Y-90606000D01*
X137480000Y-79049000D02*
X137030000Y-78599000D01*
X146050000Y-107442000D02*
X143002000Y-107442000D01*
X135636000Y-107950000D02*
X136144000Y-107442000D01*
X139893500Y-91053500D02*
X139446000Y-90606000D01*
X136144000Y-80518000D02*
X137480000Y-80518000D01*
X137160000Y-87884000D02*
X139192000Y-87884000D01*
%TO.N,Net-(U1-D0)*%
D31*
X134012000Y-76454000D02*
X135032000Y-77474000D01*
X135032000Y-77474000D02*
X137030000Y-77474000D01*
%TO.N,Net-(U1-D1)*%
X134112000Y-78994000D02*
X135132000Y-77974000D01*
X135132000Y-77974000D02*
X137030000Y-77974000D01*
%TO.N,Net-(U1-D2)*%
X134620000Y-81534000D02*
X135382000Y-82296000D01*
X134112000Y-81534000D02*
X134620000Y-81534000D01*
X135636000Y-100200000D02*
X135636000Y-99568000D01*
X135382000Y-82296000D02*
X135382000Y-99314000D01*
X135636000Y-99568000D02*
X135382000Y-99314000D01*
X134874000Y-81534000D02*
X134112000Y-81534000D01*
%TO.N,Net-(J1-Pin_1)*%
X149452000Y-91694000D02*
X148590000Y-91694000D01*
X148590000Y-91694000D02*
X148082000Y-92202000D01*
X148082000Y-92202000D02*
X148082000Y-99568000D01*
X146050000Y-101092000D02*
X146558000Y-100584000D01*
X146050000Y-102362000D02*
X146050000Y-101092000D01*
X148082000Y-99568000D02*
X147066000Y-100584000D01*
X146558000Y-100584000D02*
X147066000Y-100584000D01*
%TO.N,+3.3V*%
D30*
X140716000Y-80518000D02*
X139380000Y-80518000D01*
X138063000Y-76849000D02*
X137030000Y-76849000D01*
X139380000Y-78928000D02*
X139501000Y-78928000D01*
D32*
X139818000Y-78486000D02*
X139830000Y-78474000D01*
D30*
X139501000Y-78928000D02*
X139830000Y-78599000D01*
X138430000Y-77216000D02*
X138063000Y-76849000D01*
X139380000Y-78928000D02*
X138430000Y-77978000D01*
X138430000Y-77978000D02*
X138430000Y-77216000D01*
X139380000Y-80518000D02*
X139380000Y-78928000D01*
%TO.N,Net-(U2-1B)*%
D31*
X140974000Y-77474000D02*
X141986000Y-78486000D01*
X140970000Y-82296000D02*
X139192000Y-82296000D01*
X141986000Y-81280000D02*
X140970000Y-82296000D01*
X138938000Y-82550000D02*
X138938000Y-83415500D01*
X141986000Y-78486000D02*
X141986000Y-81280000D01*
X139830000Y-77474000D02*
X140974000Y-77474000D01*
X139192000Y-82296000D02*
X138938000Y-82550000D01*
%TO.N,Net-(U2-2B)*%
X140716000Y-81788000D02*
X137414000Y-81788000D01*
X139830000Y-77974000D02*
X140712000Y-77974000D01*
X139830000Y-77974000D02*
X139834000Y-77978000D01*
X141478000Y-78740000D02*
X141478000Y-81026000D01*
X137414000Y-81788000D02*
X136906000Y-82296000D01*
X141478000Y-81026000D02*
X140716000Y-81788000D01*
X140712000Y-77974000D02*
X141478000Y-78740000D01*
X136906000Y-82296000D02*
X136906000Y-83415500D01*
%TO.N,Net-(U3-SW)*%
D33*
X145464040Y-92202000D02*
X145034000Y-92202000D01*
X146812000Y-89518040D02*
X146812000Y-90854040D01*
X144018000Y-91186000D02*
X145034000Y-92202000D01*
D30*
X144018000Y-89705540D02*
X144018000Y-90854040D01*
D33*
X146812000Y-90854040D02*
X145464040Y-92202000D01*
X144018000Y-90854040D02*
X144018000Y-91186000D01*
%TO.N,Net-(J3-Pin_1)*%
D31*
X139954000Y-100584000D02*
X139954000Y-102362000D01*
X136906000Y-85240500D02*
X136906000Y-85852000D01*
X135890000Y-98552000D02*
X136906000Y-99568000D01*
X136906000Y-99568000D02*
X138938000Y-99568000D01*
X136906000Y-85852000D02*
X135890000Y-86868000D01*
X138938000Y-99568000D02*
X139954000Y-100584000D01*
X135890000Y-86868000D02*
X135890000Y-98552000D01*
%TO.N,VCC*%
D30*
X144018000Y-87430540D02*
X144018000Y-85774040D01*
X143068000Y-87430540D02*
X143068000Y-87110040D01*
%TD*%
M02*
