%TF.GenerationSoftware,KiCad,Pcbnew,10.0.5*%
%TF.CreationDate,2026-08-17T19:11:11+02:00*%
%TF.ProjectId,trx4m_light_xiao_breakout,74727834-6d5f-46c6-9967-68745f786961,rev?*%
%TF.SameCoordinates,Original*%
%TF.FileFunction,Soldermask,Top*%
%TF.FilePolarity,Negative*%
%FSLAX46Y46*%
G04 Gerber Fmt 4.6, Leading zero omitted, Abs format (unit mm)*
G04 Created by KiCad (PCBNEW 10.0.5) date 2026-08-17 19:11:11*
%MOMM*%
%LPD*%
G01*
G04 APERTURE LIST*
G04 Aperture macros list*
%AMRoundRect*
0 Rectangle with rounded corners*
0 $1 Rounding radius*
0 $2 $3 $4 $5 $6 $7 $8 $9 X,Y pos of 4 corners*
0 Add a 4 corners polygon primitive as box body*
4,1,4,$2,$3,$4,$5,$6,$7,$8,$9,$2,$3,0*
0 Add four circle primitives for the rounded corners*
1,1,$1+$1,$2,$3*
1,1,$1+$1,$4,$5*
1,1,$1+$1,$6,$7*
1,1,$1+$1,$8,$9*
0 Add four rect primitives between the rounded corners*
20,1,$1+$1,$2,$3,$4,$5,0*
20,1,$1+$1,$4,$5,$6,$7,0*
20,1,$1+$1,$6,$7,$8,$9,0*
20,1,$1+$1,$8,$9,$2,$3,0*%
%AMFreePoly0*
4,1,43,0.848355,0.697855,0.863000,0.662500,0.863000,-0.662500,0.859085,-0.671951,0.859085,-0.742688,0.858124,-0.752443,0.827031,-0.908756,0.824186,-0.918135,0.763196,-1.065380,0.758575,-1.074025,0.670030,-1.206541,0.663812,-1.214117,0.551117,-1.326812,0.543541,-1.333030,0.411025,-1.421575,0.402380,-1.426196,0.255135,-1.487186,0.245756,-1.490031,0.089443,-1.521124,0.079688,-1.522085,
-0.079688,-1.522085,-0.089443,-1.521124,-0.245756,-1.490031,-0.255135,-1.487186,-0.402380,-1.426196,-0.411025,-1.421575,-0.543541,-1.333030,-0.551117,-1.326812,-0.663812,-1.214117,-0.670030,-1.206541,-0.758575,-1.074025,-0.763196,-1.065380,-0.824186,-0.918135,-0.827031,-0.908756,-0.858124,-0.752443,-0.859085,-0.742688,-0.859085,-0.671951,-0.863000,-0.662500,-0.863000,0.662500,-0.848355,0.697855,
-0.813000,0.712500,0.813000,0.712500,0.848355,0.697855,0.848355,0.697855,$1*%
%AMFreePoly1*
4,1,43,0.848355,0.639355,0.863000,0.604000,0.863000,-0.604000,0.859085,-0.613451,0.859085,-0.684188,0.858124,-0.693943,0.827031,-0.850256,0.824186,-0.859635,0.763196,-1.006880,0.758575,-1.015525,0.670030,-1.148041,0.663812,-1.155617,0.551117,-1.268312,0.543541,-1.274530,0.411025,-1.363075,0.402380,-1.367696,0.255135,-1.428686,0.245756,-1.431531,0.089443,-1.462624,0.079688,-1.463585,
-0.079688,-1.463585,-0.089443,-1.462624,-0.245756,-1.431531,-0.255135,-1.428686,-0.402380,-1.367696,-0.411025,-1.363075,-0.543541,-1.274530,-0.551117,-1.268312,-0.663812,-1.155617,-0.670030,-1.148041,-0.758575,-1.015525,-0.763196,-1.006880,-0.824186,-0.859635,-0.827031,-0.850256,-0.858124,-0.693943,-0.859085,-0.684188,-0.859085,-0.613451,-0.863000,-0.604000,-0.863000,0.604000,-0.848355,0.639355,
-0.813000,0.654000,0.813000,0.654000,0.848355,0.639355,0.848355,0.639355,$1*%
G04 Aperture macros list end*
%ADD10R,1.700000X1.700000*%
%ADD11C,1.700000*%
%ADD12RoundRect,0.250000X1.045000X-0.785000X1.045000X0.785000X-1.045000X0.785000X-1.045000X-0.785000X0*%
%ADD13RoundRect,0.250000X-0.450000X0.262500X-0.450000X-0.262500X0.450000X-0.262500X0.450000X0.262500X0*%
%ADD14RoundRect,0.087500X-0.537500X-0.087500X0.537500X-0.087500X0.537500X0.087500X-0.537500X0.087500X0*%
%ADD15R,4.500000X1.750000*%
%ADD16R,1.000000X1.250000*%
%ADD17RoundRect,0.250000X0.250000X0.475000X-0.250000X0.475000X-0.250000X-0.475000X0.250000X-0.475000X0*%
%ADD18RoundRect,0.250000X0.475000X-0.250000X0.475000X0.250000X-0.475000X0.250000X-0.475000X-0.250000X0*%
%ADD19RoundRect,0.150000X-0.150000X0.512500X-0.150000X-0.512500X0.150000X-0.512500X0.150000X0.512500X0*%
%ADD20RoundRect,0.250000X-1.045000X0.785000X-1.045000X-0.785000X1.045000X-0.785000X1.045000X0.785000X0*%
%ADD21C,1.320800*%
%ADD22FreePoly0,90.000000*%
%ADD23C,1.450800*%
%ADD24FreePoly1,90.000000*%
%ADD25C,1.400000*%
%ADD26FreePoly0,270.000000*%
%ADD27FreePoly1,270.000000*%
G04 APERTURE END LIST*
D10*
%TO.C,J2*%
X143002000Y-102362000D03*
D11*
X143002000Y-104902000D03*
X143002000Y-107442000D03*
%TD*%
D12*
%TO.C,C4*%
X139446000Y-96846000D03*
X139446000Y-90606000D03*
%TD*%
D13*
%TO.C,R1*%
X138938000Y-83415500D03*
X138938000Y-85240500D03*
%TD*%
D14*
%TO.C,U2*%
X137030000Y-76974000D03*
X137030000Y-77474000D03*
X137030000Y-77974000D03*
X137030000Y-78474000D03*
X139830000Y-78474000D03*
X139830000Y-77974000D03*
X139830000Y-77474000D03*
X139830000Y-76974000D03*
%TD*%
D15*
%TO.C,L1*%
X145034000Y-92531040D03*
X145034000Y-95781040D03*
%TD*%
D16*
%TO.C,SW1*%
X135636000Y-100200000D03*
X135636000Y-107950000D03*
%TD*%
D17*
%TO.C,C2*%
X139380000Y-80518000D03*
X137480000Y-80518000D03*
%TD*%
D13*
%TO.C,R2*%
X136906000Y-83415500D03*
X136906000Y-85240500D03*
%TD*%
D18*
%TO.C,C5*%
X146812000Y-89518040D03*
X146812000Y-87618040D03*
%TD*%
D10*
%TO.C,J3*%
X139954000Y-102362000D03*
D11*
X139954000Y-104902000D03*
X139954000Y-107442000D03*
%TD*%
D17*
%TO.C,C3*%
X141092000Y-87884000D03*
X139192000Y-87884000D03*
%TD*%
D19*
%TO.C,U3*%
X144968000Y-87430540D03*
X144018000Y-87430540D03*
X143068000Y-87430540D03*
X143068000Y-89705540D03*
X144018000Y-89705540D03*
X144968000Y-89705540D03*
%TD*%
D10*
%TO.C,J1*%
X146050000Y-102362000D03*
D11*
X146050000Y-104902000D03*
X146050000Y-107442000D03*
%TD*%
D20*
%TO.C,C1*%
X145796000Y-76636000D03*
X145796000Y-82876000D03*
%TD*%
D21*
%TO.C,U1*%
X132842000Y-76454000D03*
D22*
X133454000Y-76454000D03*
D23*
X134012000Y-76454000D03*
D21*
X132842000Y-78994000D03*
D24*
X133395000Y-78994000D03*
D21*
X132842000Y-81534000D03*
D22*
X133454000Y-81534000D03*
D23*
X134112000Y-81534000D03*
D21*
X132842000Y-84074000D03*
D22*
X133454000Y-84074000D03*
D23*
X134112000Y-84074000D03*
D21*
X132842000Y-86614000D03*
D22*
X133454000Y-86614000D03*
D23*
X134112000Y-86614000D03*
D21*
X132842000Y-89154000D03*
D24*
X133395000Y-89154000D03*
D21*
X132842000Y-91694000D03*
D22*
X133454000Y-91694000D03*
D23*
X134012000Y-91694000D03*
D25*
X149452000Y-91694000D03*
D26*
X150010000Y-91694000D03*
D21*
X150622000Y-91694000D03*
D27*
X150069000Y-89154000D03*
D21*
X150622000Y-89154000D03*
D23*
X149352000Y-86614000D03*
D26*
X150010000Y-86614000D03*
D21*
X150622000Y-86614000D03*
D23*
X149352000Y-84074000D03*
D26*
X150010000Y-84074000D03*
D21*
X150622000Y-84074000D03*
D23*
X149352000Y-81534000D03*
D26*
X150010000Y-81534000D03*
D21*
X150622000Y-81534000D03*
D27*
X150069000Y-78994000D03*
D21*
X150622000Y-78994000D03*
D23*
X149452000Y-76454000D03*
D26*
X150010000Y-76454000D03*
D21*
X150622000Y-76454000D03*
%TD*%
M02*
